<svg xmlns="http://www.w3.org/2000/svg" width="48" height="48" viewBox="0 0 48 48"><path d="M12.326,11.925q.073-.05,10.7-.05h10.6l1.025,2.75q.251.675.538,1.45t.412,1.137c.083.242.142.413.175.513h-.5l-.5-.025a6.44,6.44,0,0,0-1.762-2.537,7.554,7.554,0,0,0-2.788-1.588,16.018,16.018,0,0,0-3.925-.65q-.75-.05-7.525-.05-3.4,0-3.4.025.075.075,4.125,5.638t4.076,5.612c.1.15.116.275.049.375L14.525,35.3q2.625.024,5.325.025h2.575c.916,0,1.684,0,2.3-.013L25.75,35.3a18.493,18.493,0,0,0,4.225-.55A7.108,7.108,0,0,0,34.2,31.7a8.074,8.074,0,0,0,.574-1.225h1q-.375,1.074-1.087,3.2T33.625,36.85l-10.6.025q-10.6,0-10.675-.05A.212.212,0,0,1,12.2,36.6a.3.3,0,0,1,.074-.175q.025-.049,2.325-2.775t4.6-5.45l2.3-2.725q0-.026-4.65-6.4L12.225,12.7l-.024-.275C12.2,12.159,12.242,11.992,12.326,11.925Z" style="fill:#404040"/></svg>