<svg xmlns="http://www.w3.org/2000/svg" width="48" height="48" viewBox="0 0 48 48"><path d="M16.912,31.118l-.2-4.5h.5c.334,0,.5.017.5.05a7.734,7.734,0,0,0,.176,1.825.926.926,0,0,0,.149.375.561.561,0,0,0,.325.1q.726.076,5.625.075,4.926,0,5.625-.075a.568.568,0,0,0,.326-.1.941.941,0,0,0,.149-.375,7.734,7.734,0,0,0,.176-1.825c0-.033.166-.05.5-.05h.5l-.2,4.5Zm-.075-12.724.2-4.176q0-.024,6.95-.025t6.951.025l.2,4.176a1.978,1.978,0,0,1-.5.024c-.334,0-.5-.017-.5-.05a8.782,8.782,0,0,0-.1-1.187c-.066-.475-.158-.738-.274-.787a57.214,57.214,0,0,0-5.776-.125,57.153,57.153,0,0,0-5.775.125c-.116.049-.208.312-.274.787a8.621,8.621,0,0,0-.1,1.187c0,.033-.166.05-.5.05A1.978,1.978,0,0,1,16.837,18.394Zm2.3,6.224V19.993h1v1.276h7.7V19.993h1v4.625h-1V23.343h-7.7v1.275Z" style="fill:#404040"/></svg>