<svg xmlns="http://www.w3.org/2000/svg" width="48" height="48" viewBox="0 0 48 48"><path d="M25.288,36.919a6.137,6.137,0,0,1-1.85-.35q-1.075-.351-1.075-.8c0-.317.166-.475.5-.475a.719.719,0,0,1,.325.075,4.658,4.658,0,0,0,1.85.6,1.2,1.2,0,0,0,.725-.05.91.91,0,0,0,.525-.9.757.757,0,0,0-.45-.725q-.05-.049-2.362-.95t-2.338-.925a3.572,3.572,0,0,1-2.076-2.325,3.914,3.914,0,0,1-.074-.875,2.66,2.66,0,0,1,.025-.45,6.552,6.552,0,0,1,1.275-2.775,7.716,7.716,0,0,1,1.8-1.725l.224-.15-.074-.075c-.017,0-.042-.017-.075-.05s-.079-.075-.138-.125-.1-.092-.137-.125a3.1,3.1,0,0,1-.95-2.275,4.188,4.188,0,0,1,1.124-2.813,6.756,6.756,0,0,1,2.876-1.912l.3-.125a2.566,2.566,0,0,1-.075-.625q0-1.8.7-1.8c.3,0,.449.133.449.4a.754.754,0,0,1-.024.225,5.134,5.134,0,0,0-.125,1.1,1.8,1.8,0,0,0,.025.375v.1h.15a10.515,10.515,0,0,1,1.125-.075q1.725,0,2,.525a.573.573,0,0,1,.075.3.873.873,0,0,1-.275.55,2.892,2.892,0,0,1-1.85.45,3.973,3.973,0,0,1-1.025-.087,2.261,2.261,0,0,1-.675-.413,4.187,4.187,0,0,0-1.662,1.65,4.529,4.529,0,0,0-.713,2.375,3.008,3.008,0,0,0,.25,1.3,2.2,2.2,0,0,0,.2.3c.066.084.108.117.125.1a12.584,12.584,0,0,1,2-.25c.283,0,.521.009.712.025a4.183,4.183,0,0,1,.6.1.854.854,0,0,1,.462.25.666.666,0,0,1,.15.45.781.781,0,0,1-.388.65,1.9,1.9,0,0,1-.8.275,11.093,11.093,0,0,1-1.187.05,6.351,6.351,0,0,1-1.8-.2l-.325-.075a5.417,5.417,0,0,0-2.45,2.85,3.057,3.057,0,0,0-.225,1.05,2.392,2.392,0,0,0,.05.55,2.539,2.539,0,0,0,1.349,1.35q.076.025,2.476.988t2.475.987a1.8,1.8,0,0,1,1.025,1.725,2.778,2.778,0,0,1-.825,1.95A2.639,2.639,0,0,1,25.288,36.919Z" style="fill:#404040"/></svg>